<?xml version="1.0" encoding="UTF-8" standalone="no"?>
<!DOCTYPE svg PUBLIC "-//W3C//DTD SVG 1.1//EN"
 "http://www.w3.org/Graphics/SVG/1.1/DTD/svg11.dtd">
<!-- Generated by graphviz version 2.40.1 (20161225.0304)
 -->
<!-- Title: dependencies Pages: 1 -->
<svg width="618pt" height="284pt"
 viewBox="0.00 0.00 618.00 284.00" xmlns="http://www.w3.org/2000/svg" xmlns:xlink="http://www.w3.org/1999/xlink">
<g id="graph0" class="graph" transform="scale(1 1) rotate(0) translate(4 280)">
<title>dependencies</title>
<polygon fill="#ffffff" stroke="transparent" points="-4,4 -4,-280 614,-280 614,4 -4,4"/>
<text text-anchor="start" x="284.0091" y="-42.4" font-family="sans-serif" font-weight="bold" font-size="14.00" fill="#000000">Legend</text>
<polygon fill="#ffffb3" stroke="transparent" points="71,-10 71,-30 91,-30 91,-10 71,-10"/>
<text text-anchor="start" x="94.629" y="-15.4" font-family="sans-serif" font-size="14.00" fill="#000000"> &#160;Declarations</text>
<polygon fill="#8dd3c7" stroke="transparent" points="184,-10 184,-30 204,-30 204,-10 184,-10"/>
<text text-anchor="start" x="207.7251" y="-15.4" font-family="sans-serif" font-size="14.00" fill="#000000"> &#160;Module</text>
<polygon fill="#80b1d3" stroke="transparent" points="270,-10 270,-30 290,-30 290,-10 270,-10"/>
<text text-anchor="start" x="293.7812" y="-15.4" font-family="sans-serif" font-size="14.00" fill="#000000"> &#160;Bootstrap</text>
<polygon fill="#fdb462" stroke="transparent" points="367,-10 367,-30 387,-30 387,-10 367,-10"/>
<text text-anchor="start" x="390.6732" y="-15.4" font-family="sans-serif" font-size="14.00" fill="#000000"> &#160;Providers</text>
<polygon fill="#fb8072" stroke="transparent" points="463,-10 463,-30 483,-30 483,-10 463,-10"/>
<text text-anchor="start" x="486.7258" y="-15.4" font-family="sans-serif" font-size="14.00" fill="#000000"> &#160;Exports</text>
<g id="clust1" class="cluster">
<title>cluster_NgxToastnModule</title>
<polygon fill="none" stroke="#000000" stroke-dasharray="1,5" points="8,-70 8,-268 602,-268 602,-70 8,-70"/>
</g>
<g id="clust2" class="cluster">
<title>cluster_NgxToastnModule_declarations</title>
<polygon fill="none" stroke="#000000" points="168,-78 168,-130 594,-130 594,-78 168,-78"/>
</g>
<g id="clust7" class="cluster">
<title>cluster_NgxToastnModule_exports</title>
<polygon fill="none" stroke="#000000" points="125,-208 125,-260 447,-260 447,-208 125,-208"/>
</g>
<g id="clust9" class="cluster">
<title>cluster_NgxToastnModule_providers</title>
<polygon fill="none" stroke="#000000" points="16,-78 16,-130 160,-130 160,-78 16,-78"/>
</g>
<!-- NgxToastComponent -->
<g id="node1" class="node">
<title>NgxToastComponent</title>
<polygon fill="#ffffb3" stroke="#000000" points="586.0422,-122 449.9578,-122 449.9578,-86 586.0422,-86 586.0422,-122"/>
<text text-anchor="middle" x="518" y="-99.8" font-family="Times,serif" font-size="14.00" fill="#000000">NgxToastComponent</text>
</g>
<!-- NgxToastnModule -->
<g id="node4" class="node">
<title>NgxToastnModule</title>
<polygon fill="#8dd3c7" stroke="#000000" points="348.759,-187 345.759,-191 324.759,-191 321.759,-187 227.241,-187 227.241,-151 348.759,-151 348.759,-187"/>
<text text-anchor="middle" x="288" y="-164.8" font-family="Times,serif" font-size="14.00" fill="#000000">NgxToastnModule</text>
</g>
<!-- NgxToastComponent&#45;&gt;NgxToastnModule -->
<g id="edge1" class="edge">
<title>NgxToastComponent&#45;&gt;NgxToastnModule</title>
<path fill="none" stroke="#000000" d="M518,-122.1061C518,-141.3391 518,-169 518,-169 518,-169 359.0319,-169 359.0319,-169"/>
<polygon fill="#000000" stroke="#000000" points="359.032,-165.5001 349.0319,-169 359.0319,-172.5001 359.032,-165.5001"/>
</g>
<!-- NgxToastnComponent -->
<g id="node2" class="node">
<title>NgxToastnComponent</title>
<polygon fill="#ffffb3" stroke="#000000" points="431.5421,-122 288.4579,-122 288.4579,-86 431.5421,-86 431.5421,-122"/>
<text text-anchor="middle" x="360" y="-99.8" font-family="Times,serif" font-size="14.00" fill="#000000">NgxToastnComponent</text>
</g>
<!-- NgxToastnComponent&#45;&gt;NgxToastnModule -->
<g id="edge2" class="edge">
<title>NgxToastnComponent&#45;&gt;NgxToastnModule</title>
<path fill="none" stroke="#000000" d="M318.5544,-122.1061C318.5544,-122.1061 318.5544,-140.991 318.5544,-140.991"/>
<polygon fill="#000000" stroke="#000000" points="315.0544,-140.9909 318.5544,-150.991 322.0544,-140.991 315.0544,-140.9909"/>
</g>
<!-- SafeHtmlPipe -->
<g id="node3" class="node">
<title>SafeHtmlPipe</title>
<polygon fill="#ffffb3" stroke="#000000" points="270.0397,-122 175.9603,-122 175.9603,-86 270.0397,-86 270.0397,-122"/>
<text text-anchor="middle" x="223" y="-99.8" font-family="Times,serif" font-size="14.00" fill="#000000">SafeHtmlPipe</text>
</g>
<!-- SafeHtmlPipe&#45;&gt;NgxToastnModule -->
<g id="edge3" class="edge">
<title>SafeHtmlPipe&#45;&gt;NgxToastnModule</title>
<path fill="none" stroke="#000000" d="M248.695,-122.1061C248.695,-122.1061 248.695,-140.991 248.695,-140.991"/>
<polygon fill="#000000" stroke="#000000" points="245.195,-140.9909 248.695,-150.991 252.195,-140.991 245.195,-140.9909"/>
</g>
<!-- NgxToastComponent  -->
<g id="node5" class="node">
<title>NgxToastComponent </title>
<polygon fill="#fb8072" stroke="#000000" points="439.0414,-252 298.9586,-252 298.9586,-216 439.0414,-216 439.0414,-252"/>
<text text-anchor="middle" x="369" y="-229.8" font-family="Times,serif" font-size="14.00" fill="#000000">NgxToastComponent </text>
</g>
<!-- NgxToastnModule&#45;&gt;NgxToastComponent  -->
<g id="edge4" class="edge">
<title>NgxToastnModule&#45;&gt;NgxToastComponent </title>
<path fill="none" stroke="#000000" stroke-dasharray="5,2" d="M323.9294,-187.1061C323.9294,-187.1061 323.9294,-205.991 323.9294,-205.991"/>
<polygon fill="#000000" stroke="#000000" points="320.4294,-205.9909 323.9294,-215.991 327.4294,-205.991 320.4294,-205.9909"/>
</g>
<!-- NgxToastnComponent  -->
<g id="node6" class="node">
<title>NgxToastnComponent </title>
<polygon fill="#fb8072" stroke="#000000" points="280.5414,-252 133.4586,-252 133.4586,-216 280.5414,-216 280.5414,-252"/>
<text text-anchor="middle" x="207" y="-229.8" font-family="Times,serif" font-size="14.00" fill="#000000">NgxToastnComponent </text>
</g>
<!-- NgxToastnModule&#45;&gt;NgxToastnComponent  -->
<g id="edge5" class="edge">
<title>NgxToastnModule&#45;&gt;NgxToastnComponent </title>
<path fill="none" stroke="#000000" stroke-dasharray="5,2" d="M253.8207,-187.1061C253.8207,-187.1061 253.8207,-205.991 253.8207,-205.991"/>
<polygon fill="#000000" stroke="#000000" points="250.3207,-205.9909 253.8207,-215.991 257.3207,-205.991 250.3207,-205.9909"/>
</g>
<!-- ToastyConfig -->
<g id="node7" class="node">
<title>ToastyConfig</title>
<ellipse fill="#fdb462" stroke="#000000" cx="88" cy="-104" rx="64.2862" ry="18"/>
<text text-anchor="middle" x="88" y="-99.8" font-family="Times,serif" font-size="14.00" fill="#000000">ToastyConfig</text>
</g>
<!-- ToastyConfig&#45;&gt;NgxToastnModule -->
<g id="edge6" class="edge">
<title>ToastyConfig&#45;&gt;NgxToastnModule</title>
<path fill="none" stroke="#000000" d="M142.8111,-113.591C142.8111,-131.6718 142.8111,-169 142.8111,-169 142.8111,-169 216.8476,-169 216.8476,-169"/>
<polygon fill="#000000" stroke="#000000" points="216.8477,-172.5001 226.8476,-169 216.8476,-165.5001 216.8477,-172.5001"/>
</g>
</g>
</svg>
